<svg width="373" height="116" viewBox="0 0 373 116" fill="none" xmlns="http://www.w3.org/2000/svg">
<circle cx="362.731" cy="42.9423" r="9.48077" transform="rotate(-180 362.731 42.9423)" fill="#EFF4F4"/>
<ellipse cx="362.731" cy="106.519" rx="7.25" ry="7.25" transform="rotate(-180 362.731 106.519)" fill="#EFF4F4"/>
<ellipse cx="362.731" cy="9.4808" rx="5.01923" ry="5.01923" transform="rotate(-180 362.731 9.4808)" fill="#EFF4F4"/>
<circle cx="330.385" cy="42.9423" r="9.48077" transform="rotate(-180 330.385 42.9423)" fill="#EFF4F4"/>
<ellipse cx="298.038" cy="9.48081" rx="7.25" ry="7.25" transform="rotate(-180 298.038 9.48081)" fill="#EFF4F4"/>
<ellipse cx="330.385" cy="106.519" rx="3.90385" ry="3.90384" transform="rotate(-180 330.385 106.519)" fill="#EFF4F4"/>
<ellipse cx="362.731" cy="77.5192" rx="5.01923" ry="5.01923" transform="rotate(-180 362.731 77.5192)" fill="#EFF4F4"/>
<circle cx="298.038" cy="106.519" r="9.48077" transform="rotate(-180 298.038 106.519)" fill="#EFF4F4"/>
<ellipse cx="330.385" cy="77.5192" rx="5.01923" ry="5.01923" transform="rotate(-180 330.385 77.5192)" fill="#EFF4F4"/>
<ellipse cx="265.692" cy="42.9423" rx="7.25" ry="7.25" transform="rotate(-180 265.692 42.9423)" fill="#EFF4F4"/>
<ellipse cx="265.692" cy="77.5192" rx="5.01923" ry="5.01923" transform="rotate(-180 265.692 77.5192)" fill="#EFF4F4"/>
<circle cx="265.692" cy="106.519" r="9.48077" transform="rotate(-180 265.692 106.519)" fill="#EFF4F4"/>
<circle cx="298.038" cy="77.5192" r="9.48077" transform="rotate(-180 298.038 77.5192)" fill="#EFF4F4"/>
<circle cx="235.577" cy="42.9423" r="9.48077" transform="rotate(-180 235.577 42.9423)" fill="#EFF4F4"/>
<ellipse cx="235.577" cy="106.519" rx="7.25" ry="7.25" transform="rotate(-180 235.577 106.519)" fill="#EFF4F4"/>
<ellipse cx="235.577" cy="9.4808" rx="5.01923" ry="5.01923" transform="rotate(-180 235.577 9.4808)" fill="#EFF4F4"/>
<ellipse cx="170.885" cy="9.48081" rx="7.25" ry="7.25" transform="rotate(-180 170.885 9.48081)" fill="#EFF4F4"/>
<ellipse cx="203.231" cy="106.519" rx="3.90385" ry="3.90384" transform="rotate(-180 203.231 106.519)" fill="#EFF4F4"/>
<ellipse cx="235.577" cy="77.5192" rx="5.01923" ry="5.01923" transform="rotate(-180 235.577 77.5192)" fill="#EFF4F4"/>
<ellipse cx="170.885" cy="42.9423" rx="9.48077" ry="9.48077" transform="rotate(-180 170.885 42.9423)" fill="#EFF4F4"/>
<circle cx="170.885" cy="106.519" r="9.48077" transform="rotate(-180 170.885 106.519)" fill="#EFF4F4"/>
<ellipse cx="203.231" cy="77.5192" rx="5.01923" ry="5.01923" transform="rotate(-180 203.231 77.5192)" fill="#EFF4F4"/>
<ellipse cx="138.538" cy="42.9423" rx="7.25" ry="7.25" transform="rotate(-180 138.538 42.9423)" fill="#EFF4F4"/>
<ellipse cx="138.539" cy="77.5192" rx="5.01923" ry="5.01923" transform="rotate(-180 138.539 77.5192)" fill="#EFF4F4"/>
<circle cx="138.538" cy="106.519" r="9.48077" transform="rotate(-180 138.538 106.519)" fill="#EFF4F4"/>
<circle cx="138.538" cy="9.48078" r="9.48077" transform="rotate(-180 138.538 9.48078)" fill="#EFF4F4"/>
<circle cx="170.885" cy="77.5192" r="9.48077" transform="rotate(-180 170.885 77.5192)" fill="#EFF4F4"/>
<circle cx="107.308" cy="42.9423" r="9.48077" transform="rotate(-180 107.308 42.9423)" fill="#EFF4F4"/>
<ellipse cx="107.308" cy="106.519" rx="7.25" ry="7.25" transform="rotate(-180 107.308 106.519)" fill="#EFF4F4"/>
<ellipse cx="74.9615" cy="9.48081" rx="7.25" ry="7.25" transform="rotate(-180 74.9615 9.48081)" fill="#EFF4F4"/>
<ellipse cx="42.6154" cy="9.48081" rx="7.25" ry="7.25" transform="rotate(-180 42.6154 9.48081)" fill="#EFF4F4"/>
<ellipse cx="74.9616" cy="106.519" rx="3.90385" ry="3.90384" transform="rotate(-180 74.9616 106.519)" fill="#EFF4F4"/>
<ellipse cx="107.308" cy="77.5192" rx="5.01923" ry="5.01923" transform="rotate(-180 107.308 77.5192)" fill="#EFF4F4"/>
<ellipse cx="42.6154" cy="42.9423" rx="9.48077" ry="9.48077" transform="rotate(-180 42.6154 42.9423)" fill="#EFF4F4"/>
<circle cx="42.6154" cy="106.519" r="9.48077" transform="rotate(-180 42.6154 106.519)" fill="#EFF4F4"/>
<ellipse cx="74.9615" cy="77.5192" rx="5.01923" ry="5.01923" transform="rotate(-180 74.9615 77.5192)" fill="#EFF4F4"/>
<ellipse cx="10.2692" cy="42.9423" rx="7.25" ry="7.25" transform="rotate(-180 10.2692 42.9423)" fill="#EFF4F4"/>
<ellipse cx="10.2693" cy="77.5192" rx="5.01923" ry="5.01923" transform="rotate(-180 10.2693 77.5192)" fill="#EFF4F4"/>
<circle cx="10.2692" cy="106.519" r="9.48077" transform="rotate(-180 10.2692 106.519)" fill="#EFF4F4"/>
<circle cx="42.6154" cy="77.5192" r="9.48077" transform="rotate(-180 42.6154 77.5192)" fill="#EFF4F4"/>
</svg>
